<svg width="423" height="606" viewBox="0 0 423 606" fill="none" xmlns="http://www.w3.org/2000/svg">
<path d="M116.84 63.9988C110.208 90.8284 109.451 105.869 116.84 132.698C140.22 128.476 153.37 120.726 176.907 95.0943C103.811 233.586 109.539 372.061 138.079 417.258C166.619 462.455 239.628 498.251 284.098 434.252C328.568 370.253 292.613 207.982 273.147 63.9988C271.286 39.5456 271.122 25.584 273.147 0C301.942 12.8359 316.258 24.9967 339.187 53.8747C409.806 218.041 453.149 321.153 397.927 491.381C367.832 561.426 315.199 601.454 216.398 606C120.135 603.683 59.1968 552.273 26.5739 476.556C-55.3965 245.51 74.5503 96.1004 116.84 63.9988Z" fill="url(#paint0_angular_205_381)"/>
<defs>
<radialGradient id="paint0_angular_205_381" cx="0" cy="0" r="1" gradientUnits="userSpaceOnUse" gradientTransform="translate(224.006 375.677) rotate(-90.1354) scale(411.112 286.965)">
<stop offset="0.0337118" stop-color="#226371"/>
<stop offset="0.147357" stop-color="#286675" stop-opacity="0.887665"/>
<stop offset="0.41076" stop-color="#4D8353" stop-opacity="0.921143"/>
<stop offset="0.95789" stop-color="#B0E5FF"/>
</radialGradient>
</defs>
</svg>
